# This file uses centimeters as units for non-parametric coordinates.

mtllib Apple.mtl
g default
v -0.405239 0.136252 0.405239
v 0.405239 0.136252 0.405239
v -0.500000 1.177267 0.500000
v 0.500000 1.177267 0.500000
v -0.500000 1.177267 -0.500000
v 0.500000 1.177267 -0.500000
v -0.405239 0.136252 -0.405239
v 0.405239 0.136252 -0.405239
v 0.000000 0.636252 0.747695
v 0.000000 0.136252 0.558294
v 0.542715 0.636252 0.542715
v 0.000000 1.177267 0.688847
v -0.542715 0.636252 0.542715
v 0.688847 1.177267 0.000000
v 0.000000 1.177267 -0.688847
v -0.688847 1.177267 0.000000
v 0.000000 0.636252 -0.747695
v 0.542715 0.636252 -0.542715
v 0.000000 0.136252 -0.558294
v -0.542715 0.636252 -0.542715
v 0.558294 0.136252 0.000000
v -0.558294 0.136252 0.000000
v 0.747695 0.636252 0.000000
v -0.747695 0.636252 0.000000
v 0.752787 0.989157 -0.000000
v 0.546411 0.989157 -0.546411
v -0.000000 0.989157 -0.752787
v -0.546411 0.989157 -0.546411
v -0.752787 0.989157 0.000000
v -0.546411 0.989157 0.546411
v -0.000000 0.989157 0.752787
v 0.546411 0.989157 0.546411
v 0.455182 0.274072 0.455182
v 0.000000 0.274072 0.627101
v -0.455182 0.274072 0.455182
v -0.627101 0.274072 0.000000
v -0.455182 0.274072 -0.455182
v 0.000000 0.274072 -0.627101
v 0.455182 0.274072 -0.455182
v 0.627101 0.274072 0.000000
v -0.150216 0.136252 -0.150216
v -0.211422 0.136252 0.000000
v 0.000000 0.136252 -0.211422
v 0.150216 0.136252 -0.150216
v 0.211422 0.136252 0.000000
v 0.150216 0.136252 0.150216
v -0.150216 0.136252 0.150216
v 0.000000 0.136252 0.211422
v -0.101302 0.223122 -0.101302
v -0.142804 0.223122 0.000000
v 0.000000 0.223122 0.000000
v 0.000000 0.223122 -0.142804
v 0.101302 0.223122 -0.101302
v 0.142804 0.223122 -0.000000
v 0.101302 0.223122 0.101302
v -0.101302 0.223122 0.101302
v 0.000000 0.223122 0.142804
v -0.344864 0.000000 -0.247797
v -0.417401 0.000000 -0.055124
v -0.251142 0.000000 -0.153772
v -0.291206 0.000000 -0.055124
v 0.061724 0.000000 -0.395094
v 0.250842 0.000000 -0.323435
v 0.158552 0.000000 -0.230847
v 0.061724 0.000000 -0.270427
v 0.393649 0.000000 0.065111
v 0.326868 0.000000 0.242493
v 0.240583 0.000000 0.155930
v 0.277468 0.000000 0.065111
v -0.259173 0.000000 0.350211
v -0.060121 0.000000 0.425633
v -0.162035 0.000000 0.252759
v -0.060121 0.000000 0.294418
v -0.347232 1.308533 0.347232
v -0.486006 1.308533 0.000000
v 0.000000 1.308533 0.486006
v 0.347232 1.308533 0.347232
v 0.486006 1.308533 0.000000
v 0.347232 1.308533 -0.347232
v -0.347232 1.308533 -0.347232
v 0.000000 1.308533 -0.486006
v -0.067564 1.254244 0.067564
v -0.098097 1.254244 0.000000
v 0.000000 1.254244 0.098097
v 0.067564 1.254244 0.067564
v 0.098097 1.254244 0.000000
v 0.067564 1.254244 -0.067564
v -0.067564 1.254244 -0.067564
v 0.000000 1.254244 -0.098097
v -0.062506 1.440664 0.067564
v -0.090581 1.432510 0.000000
v 0.000000 1.457451 0.098097
v 0.062506 1.474238 0.067564
v 0.090581 1.482393 0.000000
v 0.062506 1.474238 -0.067564
v -0.062506 1.440664 -0.067564
v 0.000000 1.457451 -0.098097
v -0.107055 1.665741 0.050554
v -0.130216 1.660868 -0.002297
v -0.060028 1.684553 0.076394
v -0.016455 1.708558 0.054747
v 0.000746 1.724242 0.002297
v -0.021242 1.719692 -0.051720
v -0.111842 1.676875 -0.053581
v -0.067095 1.701203 -0.076394
v -0.179247 1.851084 0.051989
v -0.195757 1.847682 0.015679
v -0.164004 1.887527 0.020745
v -0.146758 1.864260 0.069964
v -0.117817 1.880126 0.056033
v -0.106539 1.890640 0.018327
v -0.120265 1.888594 -0.019607
v -0.182828 1.858586 -0.019139
v -0.151104 1.875807 -0.034694
v -0.034936 1.632923 -0.086266
v 0.015582 1.650935 -0.059950
v 0.039275 1.656494 -0.002138
v 0.019027 1.642920 0.054545
v -0.029849 1.620937 0.078681
v -0.081212 1.602692 0.051526
v -0.105750 1.596900 -0.005446
v -0.084658 1.610707 -0.061290
v 0.370419 1.751780 -0.242365
v 0.383747 1.756164 -0.212173
v 0.373910 1.767437 -0.248975
v 0.386044 1.771417 -0.220674
v 0.743974 1.419852 -0.541397
v 0.920693 1.426728 -0.161369
v 0.777904 1.447608 -0.564047
v 0.952597 1.453736 -0.187219
v 1.018728 1.167095 -0.399638
v 0.629630 1.664280 -0.044961
v 0.644659 1.698990 -0.065548
v 0.449242 1.695070 -0.485814
v 0.431975 1.659601 -0.468796
v 0.790252 1.614645 -0.073382
v 0.561089 1.609529 -0.569166
v 0.532343 1.575058 -0.545931
v 0.764031 1.580935 -0.045882
v 0.151809 1.765788 -0.080871
v 0.138819 1.803393 -0.085274
v 0.124279 1.799233 -0.125148
v 0.135975 1.760909 -0.123495
vt 0.397743 0.062897
vt 0.397743 0.018971
vt 0.491151 0.018971
vt 0.491151 0.062897
vt 0.210927 0.290811
vt 0.210927 0.350765
vt 0.117600 0.350765
vt 0.117600 0.290811
vt 0.155980 0.519133
vt 0.186806 0.519987
vt 0.677966 0.062897
vt 0.584559 0.062897
vt 0.584559 0.018971
vt 0.677966 0.018971
vt 0.210927 0.062897
vt 0.210927 0.018971
vt 0.304335 0.018971
vt 0.304335 0.062897
vt 0.584559 0.290811
vt 0.866304 0.107728
vt 0.584559 0.350765
vt 0.491151 0.350765
vt 0.491151 0.290811
vt 0.397743 0.350765
vt 0.397743 0.290811
vt 0.024273 0.350765
vt 0.170193 0.556766
vt 0.207825 0.542551
vt 0.206971 0.573378
vt 0.184407 0.594398
vt 0.771374 0.062897
vt 0.117600 0.018971
vt 0.117600 0.062897
vt 0.677966 0.350765
vt 0.677966 0.290811
vt 0.304335 0.350765
vt 0.304335 0.290811
vt 0.024273 0.178332
vt 0.677966 0.178332
vt 0.117600 0.178332
vt 0.210927 0.178332
vt 0.304335 0.178332
vt 0.397743 0.178332
vt 0.491151 0.178332
vt 0.584559 0.178332
vt 0.397743 0.392602
vt 0.304335 0.392602
vt 0.584559 0.392602
vt 0.491151 0.392602
vt 0.024273 0.392602
vt 0.677966 0.392602
vt 0.210927 0.392602
vt 0.117600 0.392602
vt 0.115821 0.532170
vt 0.149314 0.501089
vt 0.114790 0.409680
vt 0.485722 0.590794
vt 0.153581 0.593544
vt 0.132562 0.570979
vt 0.133416 0.540153
vt 0.143596 0.441383
vt 0.201589 0.441321
vt 0.186139 0.475378
vt 0.156156 0.474639
vt 0.280872 0.533806
vt 0.280811 0.590776
vt 0.247227 0.575671
vt 0.248020 0.546215
vt 0.192635 0.667083
vt 0.139245 0.667140
vt 0.153468 0.635785
vt 0.181072 0.636466
vt 0.052467 0.583387
vt 0.052530 0.523425
vt 0.087879 0.539324
vt 0.087044 0.570327
vt 0.103902 0.703930
vt 0.023235 0.612374
vt 0.114643 0.577848
vt 0.145723 0.611342
vt 0.317479 0.623260
vt 0.225924 0.703929
vt 0.191400 0.612519
vt 0.224893 0.581439
vt 0.236812 0.409679
vt 0.317479 0.501235
vt 0.226071 0.535761
vt 0.194991 0.502267
vt 0.023235 0.490349
vt 0.477549 0.569142
vt 0.354090 0.569142
vt 0.400102 0.676415
vt 0.529027 0.590794
vt 0.507375 0.598968
vt 0.507375 0.722427
vt 0.614647 0.676415
vt 0.529027 0.547490
vt 0.785070 0.448220
vt 0.810422 0.445404
vt 0.825329 0.514231
vt 0.785070 0.513790
vt 0.837528 0.439171
vt 0.869596 0.432938
vt 0.886077 0.515179
vt 0.857509 0.514705
vt 0.913720 0.430122
vt 0.700545 0.432938
vt 0.684064 0.515179
vt 0.913720 0.515620
vt 0.732613 0.439171
vt 0.759719 0.445404
vt 0.744812 0.514231
vt 0.712632 0.514705
vt 0.831452 0.576183
vt 0.780570 0.576294
vt 0.889874 0.581890
vt 0.864359 0.578227
vt 0.954271 0.176027
vt 0.836833 0.186766
vt 0.682411 0.585186
vt 0.914548 0.585067
vt 0.839017 0.117550
vt 0.841768 0.084724
vt 0.811990 0.108393
vt 0.802763 0.084140
vt 0.815192 0.057375
vt 0.841768 0.045129
vt 0.866444 0.054885
vt 0.876382 0.081561
vt 0.736923 0.579480
vt 0.838817 0.232577
vt 0.864615 0.236369
vt 0.707871 0.583151
vt 0.783440 0.602328
vt 0.825129 0.602003
vt 0.814491 0.677556
vt 0.793369 0.677814
vt 0.855483 0.304074
vt 0.836745 0.300833
vt 0.862798 0.169079
vt 0.980082 0.193218
vt 0.028742 0.749615
vt 0.949860 0.888470
vt 0.953522 0.895721
vt 0.035170 0.746166
vt 0.107299 0.800928
vt 0.093602 0.812657
vt 0.607750 0.854805
vt 0.881130 0.953296
vt 0.875844 0.933954
vt 0.198852 0.801705
vt 0.809452 0.977467
vt 0.808591 0.953907
vt 0.850510 0.406390
vt 0.930866 0.242476
vt 0.901467 0.230553
vt 0.836745 0.404916
vt 0.400102 0.461869
vt 0.507375 0.415858
vt 0.507375 0.539316
vt 0.485722 0.547490
vt 0.614647 0.461869
vt 0.660659 0.569142
vt 0.537200 0.569142
vt 0.024273 0.290811
vt 0.771374 0.018971
vt 0.857919 0.604658
vt 0.884808 0.609561
vt 0.854596 0.682684
vt 0.835468 0.679456
vt 0.684812 0.614141
vt 0.707042 0.686057
vt 0.883979 0.685552
vt 0.713694 0.611498
vt 0.744973 0.606583
vt 0.772646 0.680675
vt 0.747227 0.684149
vt 0.957844 0.432938
vt 0.941363 0.515179
vt 0.939710 0.585186
vt 0.912610 0.613804
vt 0.942112 0.614141
vt 0.964341 0.686057
vt 0.606484 0.841804
vt 0.681854 0.736871
vt 0.681398 0.932366
vt 0.855768 0.905112
vt 0.689401 0.983322
vt 0.855323 0.729904
vt 0.980115 0.800823
vt 0.200138 0.787684
vt 0.273913 0.711137
vt 0.274376 0.909529
vt 0.440970 0.915580
vt 0.692343 0.960590
vt 0.441430 0.737769
vt 0.572484 0.840065
vt 0.154676 0.845550
vt 0.142123 0.862651
vt 0.226223 0.914683
vt 0.217057 0.933146
vt 0.327142 0.977341
vt 0.748738 0.714413
vt 0.748738 0.944796
vt 0.337057 0.698986
vt 0.337057 0.932784
vt 0.538047 0.919561
vt 0.794698 0.182383
vt 0.817076 0.179362
vt 0.817743 0.246626
vt 0.801505 0.249359
vt 0.817743 0.351896
vt 0.805826 0.353176
vt 0.886410 0.236183
vt 0.901467 0.342892
vt 0.894761 0.341217
vt 0.915878 0.237119
vt 0.922611 0.348149
vt 0.915878 0.349841
vt 0.771374 0.350765
vt 0.771374 0.392602
vt 0.024273 0.062897
vt 0.024273 0.018971
vt 0.771374 0.290811
vt 0.771374 0.178332
vn -0.661504 -0.353305 0.661504
vn -0.570285 -0.489848 0.659412
vn -0.056509 -0.482521 0.874059
vn 0.000000 -0.346078 0.938206
vn -0.784325 0.612661 0.097371
vn -0.656183 0.630248 0.414984
vn -0.448189 0.885945 0.119285
vn -0.703498 0.100899 -0.703498
vn -0.576077 0.579888 -0.576077
vn 0.000000 0.578977 -0.815344
vn 0.000000 0.099433 -0.995044
vn 0.632597 -0.774481 -0.000000
vn 0.447123 -0.774701 0.447123
vn 0.000000 -1.000000 0.000000
vn 0.938206 -0.346078 -0.000000
vn 0.661504 -0.353305 0.661504
vn 0.648985 -0.512395 0.562379
vn 0.861765 -0.504520 0.053111
vn -0.661504 -0.353305 -0.661504
vn -0.655497 -0.496714 -0.568858
vn -0.869253 -0.491119 -0.056588
vn -0.938206 -0.346078 0.000000
vn 0.703498 0.100899 0.703498
vn 0.576077 0.579888 0.576077
vn -0.000000 0.578977 0.815344
vn -0.000000 0.099433 0.995044
vn -0.576077 0.579888 0.576077
vn -0.703498 0.100899 0.703498
vn -0.378650 0.778441 0.500655
vn -0.133874 0.920057 0.368201
vn -0.049102 0.992602 0.111041
vn -0.157407 0.976862 -0.144786
vn -0.403401 0.871723 -0.278148
vn -0.665100 0.717559 -0.206763
vn 0.576077 0.579888 -0.576077
vn 0.703498 0.100899 -0.703498
vn 0.661504 -0.353305 -0.661504
vn 0.559332 -0.514856 -0.649670
vn 0.054662 -0.506117 -0.860731
vn -0.000000 -0.346078 -0.938206
vn 0.000000 -0.774481 0.632597
vn -0.447123 -0.774701 0.447123
vn -0.632597 -0.774481 0.000000
vn -0.447123 -0.774701 -0.447123
vn -0.000000 -0.774481 -0.632597
vn 0.447123 -0.774701 -0.447123
vn 0.815344 0.578977 -0.000000
vn 0.995044 0.099433 0.000000
vn -0.815344 0.578977 -0.000000
vn -0.995044 0.099433 -0.000000
vn 0.697593 -0.163488 -0.697593
vn 0.987026 -0.160563 0.000000
vn -0.000000 -0.160563 -0.987026
vn -0.697593 -0.163488 -0.697593
vn -0.987026 -0.160563 0.000000
vn -0.697593 -0.163488 0.697593
vn 0.000000 -0.160563 0.987026
vn 0.697593 -0.163488 0.697593
vn 0.000000 -1.000000 0.000000
vn 0.000000 -1.000000 0.000000
vn 0.000000 -1.000000 0.000000
vn 0.000000 -1.000000 0.000000
vn 0.000000 -1.000000 0.000000
vn 0.000000 -1.000000 0.000000
vn 0.000000 -1.000000 0.000000
vn 0.000000 -1.000000 0.000000
vn 0.000000 -1.000000 0.000000
vn 0.000000 -1.000000 0.000000
vn 0.000000 -1.000000 0.000000
vn 0.000000 -1.000000 0.000000
vn 0.000000 -1.000000 0.000000
vn 0.000000 -1.000000 0.000000
vn 0.000000 -1.000000 0.000000
vn 0.000000 -1.000000 0.000000
vn 0.000000 -1.000000 0.000000
vn 0.000000 -1.000000 0.000000
vn 0.000000 -1.000000 0.000000
vn 0.000000 -1.000000 0.000000
vn 0.000000 -1.000000 0.000000
vn 0.000000 -1.000000 0.000000
vn 0.000000 -1.000000 0.000000
vn 0.000000 -1.000000 0.000000
vn 0.000000 -1.000000 -0.000000
vn 0.000000 -1.000000 -0.000000
vn 0.000000 -1.000000 -0.000000
vn 0.000000 -1.000000 -0.000000
vn 0.000000 -1.000000 0.000000
vn 0.000000 -1.000000 0.000000
vn 0.000000 -1.000000 0.000000
vn 0.000000 -1.000000 0.000000
vn 0.782815 -0.605018 0.145445
vn 0.655669 -0.606959 0.449109
vn -0.143929 -0.575632 0.804942
vn -0.460004 -0.575081 0.676519
vn -0.794745 -0.590590 -0.139941
vn -0.664911 -0.591202 -0.456480
vn 0.144672 -0.613442 -0.776376
vn 0.443054 -0.614740 -0.652532
vn -0.722215 -0.635731 -0.272493
vn -0.722215 -0.635730 -0.272493
vn 0.631612 -0.450360 -0.631065
vn 0.631612 -0.450360 -0.631065
vn 0.631612 -0.450360 -0.631065
vn 0.631612 -0.450360 -0.631065
vn 0.760450 -0.570925 0.309452
vn 0.760450 -0.570925 0.309452
vn 0.000000 -0.375043 0.927008
vn 0.000000 -0.375043 0.927008
vn 0.000000 -0.375043 0.927008
vn 0.000000 -0.375043 0.927008
vn 0.254958 -0.693000 -0.674349
vn 0.254958 -0.693000 -0.674349
vn 0.662123 -0.352048 0.661556
vn 0.662123 -0.352048 0.661556
vn 0.662123 -0.352048 0.661556
vn 0.662123 -0.352048 0.661556
vn -0.327952 -0.496231 0.803867
vn -0.327952 -0.496231 0.803867
vn -0.910891 -0.412647 0.000000
vn -0.910891 -0.412647 0.000000
vn -0.910891 -0.412647 0.000000
vn -0.910891 -0.412647 0.000000
vn 0.674650 -0.692853 0.254561
vn 0.674650 -0.692853 0.254561
vn -0.647860 -0.401546 0.647332
vn -0.647860 -0.401546 0.647332
vn -0.647860 -0.401546 0.647332
vn -0.647860 -0.401546 0.647332
vn -0.783819 -0.532802 -0.318982
vn -0.783819 -0.532802 -0.318982
vn 0.000000 -0.431168 -0.902272
vn 0.000000 -0.431168 -0.902272
vn 0.000000 -0.431168 -0.902272
vn 0.000000 -0.431168 -0.902272
vn -0.282142 -0.602950 0.746222
vn -0.282142 -0.602950 0.746222
vn -0.639802 -0.426655 -0.639233
vn -0.639802 -0.426655 -0.639233
vn -0.639802 -0.426655 -0.639233
vn -0.639802 -0.426655 -0.639233
vn 0.305086 -0.589688 -0.747790
vn 0.305086 -0.589688 -0.747790
vn 0.914893 -0.403698 0.000000
vn 0.914892 -0.403698 0.000000
vn 0.914893 -0.403698 0.000000
vn 0.914893 -0.403698 0.000000
vn -0.231856 0.944715 0.231856
vn -0.329061 0.944309 0.000000
vn 0.231856 0.944715 0.231856
vn 0.000000 0.944309 0.329061
vn 0.231856 0.944715 -0.231856
vn 0.329061 0.944309 -0.000000
vn -0.231856 0.944715 -0.231856
vn 0.000000 0.944309 -0.329061
vn 0.096873 0.990571 -0.096873
vn 0.137576 0.990491 0.000000
vn -0.096873 0.990571 -0.096873
vn 0.000000 0.990491 -0.137576
vn -0.096873 0.990571 0.096873
vn -0.137576 0.990491 -0.000000
vn 0.096873 0.990571 0.096873
vn 0.000000 0.990491 0.137576
vn -0.999406 0.034459 0.000000
vn -0.715870 0.019749 0.697954
vn -0.706767 0.000274 0.707447
vn -0.999796 -0.019391 0.005624
vn 0.019388 0.005842 0.999795
vn 0.729841 0.017010 0.683406
vn 0.727711 0.109818 0.677035
vn 0.026177 0.048677 0.998472
vn 0.999607 0.028047 -0.000000
vn 0.729841 0.017010 -0.683406
vn 0.730201 0.104095 -0.675256
vn 0.990115 0.140222 -0.003076
vn 0.019388 0.005842 -0.999795
vn -0.715870 0.019749 -0.697954
vn -0.705150 -0.019906 -0.708779
vn 0.039823 0.031404 -0.998713
vn -0.714473 -0.083818 0.694624
vn -0.986932 -0.160547 -0.013766
vn 0.702141 0.269083 0.659236
vn 0.003440 0.096421 0.995335
vn 0.658583 0.231844 -0.715903
vn 0.949515 0.311036 0.040966
vn -0.688917 -0.098305 -0.718143
vn 0.027659 0.093919 -0.995196
vn -0.940917 -0.338599 0.005147
vn -0.674813 -0.269232 0.687126
vn -0.678573 -0.270637 0.682857
vn -0.944011 -0.329896 0.003397
vn -0.048702 0.011669 0.998745
vn 0.627601 0.358687 0.690986
vn 0.625517 0.367452 0.688264
vn -0.058977 0.006698 0.998237
vn 0.846883 0.521326 0.104918
vn 0.553753 0.446161 -0.703063
vn 0.592954 0.477349 -0.648494
vn 0.843799 0.536385 0.017142
vn -0.063847 0.171366 -0.983136
vn -0.699041 -0.161666 -0.696568
vn -0.705356 -0.143738 -0.694127
vn -0.081868 0.190510 -0.978266
vn 0.620871 -0.766417 -0.164694
vn 0.620871 -0.766417 -0.164694
vn 0.313758 -0.949434 -0.011442
vn 0.358719 -0.932877 -0.032570
vn -0.386393 -0.118902 -0.914638
vn -0.386393 -0.118902 -0.914638
vn -0.412862 -0.151469 -0.898110
vn -0.413528 -0.152297 -0.897664
vn -0.446411 0.890180 0.091086
vn -0.446411 0.890180 0.091086
vn -0.214291 0.976555 -0.020468
vn -0.173473 0.984059 -0.039186
vn 0.427043 0.208559 0.879851
vn 0.427043 0.208559 0.879851
vn 0.450665 0.245240 0.858346
vn 0.450581 0.245106 0.858429
vn -0.405165 -0.887103 0.221110
vn -0.410434 -0.884400 0.222216
vn -0.499840 -0.831250 0.243278
vn -0.501869 -0.829857 0.243854
vn -0.720074 -0.018561 -0.693649
vn -0.781466 0.036940 -0.622853
vn -0.790607 0.078987 -0.607208
vn -0.813466 0.098660 -0.573183
vn 0.318687 0.931408 -0.175836
vn 0.314934 0.932768 -0.175389
vn 0.458970 0.860191 -0.222301
vn 0.453946 0.863369 -0.220288
vn 0.070410 0.478635 0.875187
vn 0.043577 0.486769 0.872443
vn -0.006171 0.516902 0.856023
vn -0.062677 0.528215 0.846794
vn -0.612256 -0.733373 0.295477
vn -0.605113 -0.740601 0.292145
vn -0.725625 -0.593506 0.348166
vn 0.630253 0.715513 -0.301367
vn 0.643034 0.701518 -0.307215
vn 0.800222 0.465139 -0.378536
vn 0.498975 0.233745 0.834498
vn 0.527374 0.202646 0.825113
vn 0.540956 0.799905 -0.259843
vn 0.534771 0.804998 -0.256903
vn -0.386061 -0.286596 -0.876824
vn -0.419353 -0.256812 -0.870741
vn -0.543762 -0.796977 0.262964
vn -0.547620 -0.793705 0.264849
vn -0.265022 -0.384960 -0.884064
vn -0.265022 -0.384960 -0.884064
vn 0.630220 0.075653 0.772722
vn 0.630220 0.075653 0.772722
vn 0.737231 -0.284169 0.612975
vn 0.000000 -0.000000 0.000000
vn 0.000000 -0.000000 0.000000
vn 0.737231 -0.284169 0.612975
vn -0.000000 -0.000000 -0.000000
vn -0.090952 -0.560522 -0.823130
vn -0.090952 -0.560522 -0.823130
vn -0.000000 -0.000000 -0.000000
s 1
g obj_apple
usemtl lambert3SG
f 35/1/1 1/2/2 10/3/3 34/4/4
s 2
f 107/20/5 106/122/6 108/123/7
s 1
f 28/5/8 5/6/9 15/7/10 27/8/11
s 4
f 50/9/12 49/10/13 51/27/14
s 1
f 40/11/15 33/12/16 2/13/17 21/14/18
f 37/15/19 7/16/20 22/17/21 36/18/22
f 10/3/3 2/13/17 33/12/16 34/4/4
f 32/19/23 4/21/24 12/22/25 31/23/26
f 12/22/25 3/24/27 30/25/28 31/23/26
s 2
f 109/124/29 110/125/30 108/123/7
f 111/126/31 112/127/32 108/123/7
f 114/128/33 113/129/34 108/123/7
s 1
f 15/7/10 6/26/35 26/165/36 27/8/11
f 39/222/37 8/223/38 19/32/39 38/33/40
f 19/32/39 7/16/20 37/15/19 38/33/40
s 4
f 52/28/41 53/29/42 51/27/14
f 54/30/43 55/58/44 51/27/14
f 57/59/45 56/60/46 51/27/14
s 1
f 21/14/18 8/166/38 39/31/37 40/11/15
f 26/224/36 6/220/35 14/34/47 25/35/48
f 14/34/47 4/21/24 32/19/23 25/35/48
f 22/17/21 1/2/2 35/1/1 36/18/22
f 30/25/28 3/24/27 16/36/49 29/37/50
f 16/36/49 5/6/9 28/5/8 29/37/50
f 18/225/51 26/224/36 25/35/48 23/39/52
f 27/8/11 26/165/36 18/38/51 17/40/53
f 20/41/54 28/5/8 27/8/11 17/40/53
f 29/37/50 28/5/8 20/41/54 24/42/55
f 13/43/56 30/25/28 29/37/50 24/42/55
f 31/23/26 30/25/28 13/43/56 9/44/57
f 11/45/58 32/19/23 31/23/26 9/44/57
f 25/35/48 32/19/23 11/45/58 23/39/52
f 34/4/4 33/12/16 11/45/58 9/44/57
f 13/43/56 35/1/1 34/4/4 9/44/57
f 36/18/22 35/1/1 13/43/56 24/42/55
f 20/41/54 37/15/19 36/18/22 24/42/55
f 38/33/40 37/15/19 20/41/54 17/40/53
f 18/38/51 39/222/37 38/33/40 17/40/53
f 40/11/15 39/31/37 18/225/51 23/39/52
f 11/45/58 33/12/16 40/11/15 23/39/52
s 4
f 51/27/14 55/58/44 57/59/45
f 51/27/14 53/29/42 54/30/43
f 51/27/14 49/10/13 52/28/41
f 51/27/14 56/60/46 50/9/12
s off
f 59/61/59 58/62/60 60/63/61 61/64/62
f 62/65/63 63/66/64 64/67/65 65/68/66
f 66/69/67 67/70/68 68/71/69 69/72/70
f 71/73/71 70/74/72 72/75/73 73/76/74
f 2/77/75 10/78/76 48/79/77 46/80/78
f 8/81/79 21/82/80 45/83/81 44/84/82
f 7/85/83 19/86/84 43/87/85 41/88/86
f 1/89/87 22/56/88 42/55/89 47/54/90
s 4
f 42/55/91 41/88/92 49/10/13 50/9/12
f 43/87/93 44/84/94 53/29/42 52/28/41
f 45/83/95 46/80/96 55/58/44 54/30/43
f 48/79/97 47/54/98 56/60/46 57/59/45
f 46/80/96 48/79/97 57/59/45 55/58/44
f 44/84/94 45/83/95 54/30/43 53/29/42
f 41/88/92 43/87/93 52/28/41 49/10/13
f 47/54/98 42/55/91 50/9/12 56/60/46
s 1
f 22/56/21 7/85/20 58/62/99 59/61/100
s off
f 7/85/101 41/88/102 60/63/103 58/62/104
s 4
f 41/88/92 42/55/91 61/64/105 60/63/106
s off
f 42/55/107 22/56/108 59/61/109 61/64/110
s 1
f 19/86/39 8/81/38 63/66/111 62/65/112
s off
f 8/81/113 44/84/114 64/67/115 63/66/116
s 4
f 44/84/94 43/87/93 65/68/117 64/67/118
s off
f 43/87/119 19/86/120 62/65/121 65/68/122
s 1
f 21/82/18 2/77/17 67/70/123 66/69/124
s off
f 2/77/125 46/80/126 68/71/127 67/70/128
s 4
f 46/80/96 45/83/95 69/72/129 68/71/130
s off
f 45/83/131 21/82/132 66/69/133 69/72/134
s 1
f 10/78/3 1/89/2 70/74/135 71/73/136
s off
f 1/89/137 47/54/138 72/75/139 70/74/140
s 4
f 47/54/98 48/79/97 73/76/141 72/75/142
s off
f 48/79/143 10/78/144 71/73/145 73/76/146
s 2
f 108/123/7 112/127/32 114/128/33
f 108/123/7 110/125/30 111/126/31
f 108/123/7 106/122/6 109/124/29
f 108/123/7 113/129/34 107/20/5
s 1
f 16/36/49 3/24/27 74/46/147 75/47/148
f 12/22/25 4/21/24 77/48/149 76/49/150
f 14/34/47 6/220/35 79/221/151 78/51/152
f 15/7/10 5/6/9 80/52/153 81/53/154
f 6/26/35 15/7/10 81/53/154 79/50/151
f 4/21/24 14/34/47 78/51/152 77/48/149
f 3/24/27 12/22/25 76/49/150 74/46/147
f 5/6/9 16/36/49 75/47/148 80/52/153
f 75/158/148 74/159/147 82/160/155 83/161/156
f 76/162/150 77/163/149 85/164/157 84/97/158
f 78/96/152 79/95/151 87/94/159 86/93/160
f 81/92/154 80/91/153 88/90/161 89/57/162
f 79/95/151 81/92/154 89/57/162 87/94/159
f 77/163/149 78/96/152 86/93/160 85/164/157
f 74/159/147 76/162/150 84/97/158 82/160/155
f 80/91/153 75/158/148 83/161/156 88/90/161
s 13
f 83/98/163 82/99/164 90/100/165 91/101/166
f 84/102/167 85/103/168 93/104/169 92/105/170
f 86/106/171 87/178/172 95/179/173 94/109/174
f 89/110/175 88/111/176 96/112/177 97/113/178
f 87/107/172 89/110/175 97/113/178 95/108/173
f 85/103/168 86/106/171 94/109/174 93/104/169
f 82/99/164 84/102/167 92/105/170 90/100/165
f 88/111/176 83/98/163 91/101/166 96/112/177
f 91/101/166 90/100/165 120/114/179 121/115/180
f 92/105/170 93/104/169 118/116/181 119/117/182
f 94/109/174 95/179/173 116/180/183 117/121/184
f 97/113/178 96/112/177 122/130/185 115/133/186
f 95/108/173 97/113/178 115/133/186 116/120/183
f 93/104/169 94/109/174 117/121/184 118/116/181
f 90/100/165 92/105/170 119/117/182 120/114/179
f 96/112/177 91/101/166 121/115/180 122/130/185
f 99/134/187 98/135/188 106/136/189 107/137/190
f 100/167/191 101/168/192 110/169/193 109/170/194
f 102/181/195 103/182/196 112/183/197 111/173/198
f 105/174/199 104/175/200 113/176/201 114/177/202
f 103/171/196 105/174/199 114/177/202 112/172/197
f 101/168/192 102/181/195 111/173/198 110/169/193
f 98/135/188 100/167/191 109/170/194 106/136/189
f 104/175/200 99/134/187 107/137/190 113/176/201
f 116/120/183 115/133/186 105/174/199 103/171/196
f 118/116/181 117/121/184 102/181/195 101/168/192
f 119/117/182 118/116/181 101/168/192 100/167/191
f 120/114/179 119/117/182 100/167/191 98/135/188
f 121/115/180 120/114/179 98/135/188 99/134/187
f 122/130/185 121/115/180 99/134/187 104/175/200
f 115/133/186 122/130/185 104/175/200 105/174/199
s 17
f 117/131/203 116/132/204 143/138/205 140/139/206
s 18
f 116/119/207 103/140/208 142/156/209 143/214/210
s 19
f 103/208/211 102/209/212 141/210/213 142/211/214
s 20
f 102/118/215 117/141/216 140/155/217 141/217/218
s 17
f 124/151/219 123/191/220 135/192/221 132/193/222
s 18
f 123/143/223 125/144/224 134/149/225 135/150/226
s 19
f 125/148/227 126/184/228 133/185/229 134/186/230
s 20
f 126/142/231 124/145/232 132/146/233 133/147/234
s 17
f 128/194/235 127/196/236 131/197/237
s 19
f 129/187/238 130/189/239 131/190/240
s 20
f 133/147/234 132/146/233 139/198/241 136/199/242
s 19
f 134/186/230 133/185/229 136/203/243 137/204/244
s 18
f 135/150/226 134/149/225 137/152/245 138/153/246
s 17
f 132/193/222 135/192/221 138/205/247 139/206/248
s 19
f 137/204/244 136/203/243 130/189/239 129/187/238
s 18
f 138/153/246 137/152/245 129/188/249 127/195/250
s 17
f 139/206/248 138/205/247 127/196/236 128/194/235
s 20
f 136/199/242 139/198/241 128/200/251 130/201/252
f 141/217/218 140/155/217 124/218/232 126/219/231
s 19
f 142/211/214 141/210/213 126/212/228 125/213/227
s 18
f 143/214/210 142/156/209 125/215/224 123/216/223
s 17
f 140/139/206 143/138/205 123/154/220 124/157/219
s off
f 128/200/253 131/202/254 131/202/255 130/201/256
f 131/207/257 127/195/258 129/188/259 131/207/260
